<svg xmlns="http://www.w3.org/2000/svg" xmlns:xlink="http://www.w3.org/1999/xlink" width="44" height="44" viewBox="0 0 44 44"><defs><path id="nqina" d="M466 10644h44v44h-44z"/><path id="nqinc" d="M478.65 10656.65h18.7v18.7h-18.7zm5.1 8.5h8.5v-6.8h-8.5zm0 8.5h8.5v-6.8h-8.5zm10.2-13.6h1.7v-1.7h-1.7zm0 2.55h1.7v-1.7h-1.7zm0 2.55h1.7v-1.7h-1.7zm0 3.4h1.7v-1.7h-1.7zm0 2.55h1.7v-1.7h-1.7zm0 2.55h1.7v-1.7h-1.7zm-13.6-13.6h1.7v-1.7h-1.7zm0 2.55h1.7v-1.7h-1.7zm0 2.55h1.7v-1.7h-1.7zm0 3.4h1.7v-1.7h-1.7zm0 2.55h1.7v-1.7h-1.7zm0 2.55h1.7v-1.7h-1.7z"/><clipPath id="nqinb"><use xlink:href="#nqina"/></clipPath></defs><g><g transform="translate(-466 -10644)"><use fill="#f39c12" xlink:href="#nqina"/></g><g clip-path="url(#nqinb)" transform="translate(-466 -10644)"><use fill="#fff" xlink:href="#nqinc"/></g></g></svg>