<svg xmlns="http://www.w3.org/2000/svg" xmlns:xlink="http://www.w3.org/1999/xlink" width="44" height="44" viewBox="0 0 44 44"><defs><path id="xlvca" d="M1080 10644h44v44h-44z"/><path id="xlvcc" d="M1109.72 10676.2v-1.7h-.02l.02-.43v-9.35a7.23 7.23 0 1 0-14.45 0v9.35c0 .15.02.29.03.43h-.03v1.7s-4.25-.07-4.25-4.68c0-2.6 1.37-3.76 2.55-4.27v-2.53a8.92 8.92 0 1 1 17.85 0v2.53c1.19.51 2.55 1.66 2.55 4.27 0 4.6-4.25 4.68-4.25 4.68zm-12.75 0h-.85v-9.35h.85zm11.9 0h-.85v-9.35h.85z"/><clipPath id="xlvcb"><use xlink:href="#xlvca"/></clipPath></defs><g><g transform="translate(-1080 -10644)"><use fill="#f39c12" xlink:href="#xlvca"/></g><g clip-path="url(#xlvcb)" transform="translate(-1080 -10644)"><use fill="#f7f7f7" xlink:href="#xlvcc"/></g></g></svg>