<svg xmlns="http://www.w3.org/2000/svg" xmlns:xlink="http://www.w3.org/1999/xlink" width="53" height="60" viewBox="0 0 53 60"><defs><path id="b8k6a" d="M932.04 12701.1a26.01 26.01 0 0 1 26.04 25.97c0 8.24-3.84 15.58-9.83 20.34h.77l-15.44 13.55-18.52-13.55h.77a25.91 25.91 0 0 1-9.83-20.34 26.01 26.01 0 0 1 26.04-25.98z"/><path id="b8k6b" d="M905.1 12761.9v-61.8h54.8v61.8zm.9-34.83c0 8.24 3.84 15.58 9.83 20.34h-.77l18.52 13.55 15.44-13.55h-.77a25.91 25.91 0 0 0 9.83-20.34 26.01 26.01 0 0 0-26.04-25.98 26.01 26.01 0 0 0-26.04 25.98z"/><filter id="b8k6c" width="200%" height="200%" x="-50%" y="-50%"><feGaussianBlur in="SourceGraphic" result="FeGaussianBlur1270Out" stdDeviation="0.45 0.45"/></filter><mask id="b8k6d"><use fill="#fff" xlink:href="#b8k6a"/></mask></defs><g><g transform="translate(-906 -12701)"><use fill="#fff" xlink:href="#b8k6a"/><use fill-opacity=".5" stroke="#000" stroke-opacity=".5" stroke-width=".4" filter="url(#b8k6c)" mask="url(&quot;#b8k6d&quot;)" xlink:href="#b8k6b"/></g></g></svg>